HIERARCHY
ROOT root
{
	OFFSET	0	13.1	24.9
	CHANNELS 6  Xposition Yposition Zposition Xrotation Yrotation Zrotation
	JOINT spine_1
	{
		OFFSET	0	9.99999	0
		CHANNELS 3  Xrotation Yrotation Zrotation
		JOINT spine_2
		{
			OFFSET	0	112	-10
			CHANNELS 3  Xrotation Yrotation Zrotation
			JOINT spine_3
			{
				OFFSET	0	206.5	19.3
				CHANNELS 3  Xrotation Yrotation Zrotation
				JOINT spine_4
				{
					OFFSET	0	110.4	14.6
					CHANNELS 3  Xrotation Yrotation Zrotation
					JOINT neck_1
					{
						OFFSET	0	71.8	-50.3
						CHANNELS 3  Xrotation Yrotation Zrotation
						JOINT neck_2
						{
							OFFSET	0	86.2	-25.8
							CHANNELS 3  Xrotation Yrotation Zrotation
							JOINT head_ee
							{
								OFFSET	0	179.8	-8.7
								CHANNELS 3  Xrotation Yrotation Zrotation
								End Site
								{
									OFFSET	1	0	0
								}
							}
						}
					}
					JOINT left_clavicle
					{
						OFFSET	-43.2	22.4	-70.8
						CHANNELS 3  Xrotation Yrotation Zrotation
						JOINT left_shoulder
						{
							OFFSET	-93.9	-5.79999	48.7
							CHANNELS 3  Xrotation Yrotation Zrotation
							JOINT left_elbow
							{
								OFFSET	-291.4	-30.8	15.2
								CHANNELS 3  Xrotation Yrotation Zrotation
								JOINT left_lowarm_twist
								{
									OFFSET	-110.7	-3.89999	13.6
									CHANNELS 3  Xrotation Yrotation Zrotation
									JOINT left_hand
									{
										OFFSET	-110.7	-3.89999	13.6
										CHANNELS 3  Xrotation Yrotation Zrotation
										JOINT left_ee
										{
											OFFSET	-80.8	-5.10001	12.1
											CHANNELS 3  Xrotation Yrotation Zrotation
											End Site
											{
												OFFSET	1	0	0
											}
										}
									}
								}
							}
						}
					}
					JOINT right_clavicle
					{
						OFFSET	43.2	22.4	-70.8
						CHANNELS 3  Xrotation Yrotation Zrotation
						JOINT right_shoulder
						{
							OFFSET	93.9	-5.79999	48.7
							CHANNELS 3  Xrotation Yrotation Zrotation
							JOINT right_elbow
							{
								OFFSET	291.4	-30.8	15.2
								CHANNELS 3  Xrotation Yrotation Zrotation
								JOINT right_lowarm_twist
								{
									OFFSET	110.7	-3.89999	13.6
									CHANNELS 3  Xrotation Yrotation Zrotation
									JOINT right_hand
									{
										OFFSET	110.7	-3.89999	13.6
										CHANNELS 3  Xrotation Yrotation Zrotation
										JOINT right_ee
										{
											OFFSET	80.8	-5.10001	12.1
											CHANNELS 3  Xrotation Yrotation Zrotation
											End Site
											{
												OFFSET	1	0	0
											}
										}
									}
								}
							}
						}
					}
				}
			}
		}
	}
	JOINT left_hip
	{
		OFFSET	-82.8	-127.5	0.300001
		CHANNELS 3  Xrotation Yrotation Zrotation
		JOINT left_knee
		{
			OFFSET	-28.2	-396.7	2.2
			CHANNELS 3  Xrotation Yrotation Zrotation
			JOINT left_ankle
			{
				OFFSET	-11.7	-411.3	35.4
				CHANNELS 3  Xrotation Yrotation Zrotation
				JOINT left_toes
				{
					OFFSET	0	-60	-88.6
					CHANNELS 3  Xrotation Yrotation Zrotation
					JOINT left_foot_ee
					{
						OFFSET	-22.5	-16.5	-42.2
						CHANNELS 3  Xrotation Yrotation Zrotation
						End Site
						{
							OFFSET	1	0	0
						}
					}
				}
			}
		}
	}
	JOINT right_hip
	{
		OFFSET	82.8	-127.5	0.300001
		CHANNELS 3  Xrotation Yrotation Zrotation
		JOINT right_knee
		{
			OFFSET	28.2	-396.7	2.2
			CHANNELS 3  Xrotation Yrotation Zrotation
			JOINT right_ankle
			{
				OFFSET	11.7	-411.3	35.4
				CHANNELS 3  Xrotation Yrotation Zrotation
				JOINT right_toes
				{
					OFFSET	0	-60	-88.6
					CHANNELS 3  Xrotation Yrotation Zrotation
					JOINT right_foot_ee
					{
						OFFSET	22.5	-16.5	-42.2
						CHANNELS 3  Xrotation Yrotation Zrotation
						End Site
						{
							OFFSET	1	0	0
						}
					}
				}
			}
		}
	}
}
MOTION
Frames: 5
Frame Time: 0.02
582.961488327 718.506 -1128.91704079 -170.113684245 -38.4935327623 -172.461913444 5.75882 -0.41981 -1.80827 5.76059 -0.303914 -1.83131 5.76837 -0.0991275 -1.8537 5.76378 -0.390593 -1.81481 -24.7704 18.3364 7.05037 -26.9841 32.3331 16.5475 -0.0 0.0 -0.0 3.84962 5.00533 7.65857 -16.864 -21.2451 66.9641 1.06045 -27.7129 0.261586 -4.72358 -0.190189 0.572895 -0.688716 8.069 -1.103 -0.0 0.0 -0.0 7.57582 3.8581 -14.7416 -33.99 10.8739 -56.0565 0.729458 19.8674 -0.127755 -4.47183 0.178864 -0.542767 0.388741 8.68935 1.065 0.0 0.0 0.0 3.40047 -0.584576 5.5789 -9.09521 0.266283 1.36897 27.7526 16.2885 -3.69802 -16.6893 0.0 0.0 -0.0 0.0 -0.0 17.8967 -2.1483 7.63319 -19.1967 -0.304332 -2.9164 4.84892 -13.9493 0.704145 16.6964 -0.0 -0.0 0.0 0.0 0.0 
591.036833754 720.782 -1123.53828875 -170.345449709 -39.4851739239 -172.589177827 5.6507 -0.357742 -1.64543 5.65217 -0.252329 -1.66485 5.65795 -0.0630375 -1.68268 5.65415 -0.327957 -1.65162 -22.3579 17.8343 6.15709 -24.152 31.5405 14.5461 -0.0 0.0 -0.0 4.41849 4.23416 8.68634 -15.9115 -20.8192 65.2467 1.03082 -27.0499 0.247959 -4.50513 -0.180354 0.546754 -0.786785 6.09368 -2.59844 -0.0 0.0 -0.0 7.22443 3.03676 -14.0299 -34.5179 10.3425 -57.4499 0.665334 18.2416 -0.106818 -4.37004 0.174322 -0.53057 0.331008 7.75275 1.05586 0.0 0.0 0.0 2.35026 1.45356 5.50539 -8.20599 0.24988 1.23351 27.6647 16.5922 -3.69145 -17.1557 0.0 0.0 -0.0 0.0 -0.0 20.7089 -0.525469 7.60753 -21.5078 -0.274674 -3.26976 3.84508 -9.7877 0.557343 15.3199 -0.0 -0.0 0.0 0.0 0.0 
601.265130586 721.327 -1121.64364156 -169.585046501 -41.9100190942 -171.907857834 5.52659 -0.357787 -1.57528 5.52793 -0.256836 -1.59485 5.5337 -0.0719084 -1.61379 5.53022 -0.325841 -1.58219 -23.4273 17.536 5.2528 -25.3919 31.4556 13.9619 -0.0 0.0 -0.0 4.58503 3.42824 8.97351 -14.4698 -22.1835 64.5658 1.093 -28.4321 0.276906 -4.30953 -0.171633 0.523317 -0.555798 5.52055 -1.33446 -0.0 0.0 -0.0 6.95596 2.88867 -13.4861 -35.6962 9.92823 -58.2707 0.618765 17.0414 -0.0927042 -4.53713 0.181788 -0.550586 0.27788 6.68198 0.959125 0.0 0.0 0.0 1.23982 2.89493 5.64551 -6.09342 0.202496 0.912798 28.1488 15.2447 -3.73175 -17.2913 0.0 0.0 -0.0 0.0 -0.0 22.9974 0.665928 7.34754 -21.7727 -0.270364 -3.31019 4.51037 -7.639 0.652345 15.3623 -0.0 -0.0 0.0 0.0 0.0 
617.097587393 716.164 -1116.82929153 -169.474086105 -42.5924797297 -171.727434789 5.37475 -0.318143 -1.48685 5.37595 -0.222897 -1.50407 5.38062 -0.0445496 -1.51984 5.37751 -0.283994 -1.49374 -22.1886 17.5775 5.47122 -23.9621 31.3428 13.7333 -0.0 0.0 -0.0 4.93584 3.05548 9.62599 -13.6476 -21.8434 63.5749 1.11864 -28.9918 0.289223 -3.8378 -0.150929 0.466671 -0.65578 5.51578 -1.9917 -0.0 0.0 -0.0 6.74567 2.66055 -13.0636 -36.2463 9.46797 -59.0596 0.587709 16.2322 -0.0838126 -5.00621 0.203061 -0.606661 0.337457 6.44648 0.45705 0.0 0.0 0.0 -0.69653 3.92238 6.37755 -6.24256 0.206228 0.935381 31.4138 16.0637 -4.10023 -16.5307 0.0 0.0 -0.0 0.0 -0.0 25.1716 1.62226 6.95412 -21.647 -0.272433 -3.291 1.98451 -6.93348 0.289075 14.1972 -0.0 -0.0 0.0 0.0 0.0 
626.177214619 716.701 -1119.41732139 -169.156083325 -44.2983998296 -171.577559857 5.23123 -0.300768 -1.25319 5.23208 -0.220422 -1.26978 5.23617 -0.0663857 -1.28706 5.23396 -0.268803 -1.26043 -21.9826 16.8777 5.98299 -23.5004 29.7427 13.7012 -0.0 0.0 -0.0 5.78605 2.2065 11.2334 -13.9819 -20.6135 60.9955 1.13984 -29.45 0.299573 -3.2222 -0.124617 0.392502 -0.624504 3.64005 -2.59715 -0.0 0.0 -0.0 6.64167 2.48076 -12.8564 -36.2774 9.29916 -60.0631 0.56639 15.6729 -0.0779534 -5.04708 0.204936 -0.611538 0.14704 5.05036 1.14888 0.0 0.0 0.0 -2.22013 4.47897 6.98891 -3.94033 0.142062 0.587915 30.2992 15.7696 -3.97606 -17.3415 0.0 0.0 -0.0 0.0 -0.0 27.0285 2.23226 6.33388 -19.229 -0.304015 -2.92136 -0.645212 -5.30564 -0.0947062 12.8661 -0.0 -0.0 0.0 0.0 0.0 
